<svg width="49" height="48" viewBox="0 0 49 48" fill="none" xmlns="http://www.w3.org/2000/svg">
<rect x="0.0334473" width="48" height="48" rx="9.6" fill="white"/>
<path d="M19.1876 26.2384C19.2187 24.7642 19.2497 23.3014 19.2808 21.8216L17.7587 21.9092L14.0423 22.1294C12.9736 22.1512 11.9362 22.4946 11.0657 23.115C8.24174 25.233 8.6371 28.571 10.3202 30.336C11.0262 31.0787 11.7633 31.7904 12.4891 32.5133C14.1835 34.2077 15.8779 35.9247 17.5977 37.6163C18.3509 38.3507 19.3215 38.8216 20.3645 38.9585C21.4076 39.0955 22.4669 38.8911 23.3841 38.376C24.9429 37.4723 25.6715 36.0377 25.776 34.2783C25.8805 32.519 25.9342 30.6947 26.0104 28.9127L26.5272 16.6339C26.5272 16.3204 26.547 16.007 26.5611 15.6907C26.5645 15.3521 26.6719 15.0228 26.8689 14.7475C26.9818 14.5728 27.1499 14.441 27.3465 14.3729C27.543 14.3049 27.7566 14.3045 27.9533 14.3719C28.2491 14.4725 28.5204 14.6341 28.7497 14.8463C30.3142 16.3769 31.8637 17.9217 33.398 19.4805C33.598 19.7008 33.7457 19.9633 33.8301 20.2486C33.8676 20.3463 33.8846 20.4506 33.8801 20.5551C33.8756 20.6596 33.8496 20.7621 33.8038 20.8561C33.7579 20.9501 33.6933 21.0337 33.6137 21.1017C33.5342 21.1697 33.4416 21.2205 33.3415 21.2512C32.9146 21.4039 32.4692 21.4989 32.0171 21.5336C31.0174 21.6013 30.0177 21.607 28.9926 21.6352C28.9163 23.115 28.8373 24.5807 28.7582 26.0718L29.9358 26.0266C31.3196 25.9729 32.7005 25.9334 34.0814 25.8628C35.1271 25.8389 36.1418 25.5036 36.9958 24.8998C37.5352 24.525 37.992 24.0436 38.3379 23.4852C38.6837 22.9269 38.9114 22.3035 39.0067 21.6536C39.102 21.0038 39.0629 20.3413 38.8919 19.7071C38.7209 19.073 38.4216 18.4807 38.0125 17.9668C37.7983 17.7178 37.5691 17.482 37.3262 17.2608C35.0896 15.0016 32.8615 12.7424 30.6136 10.5227C29.066 8.98366 27.2247 8.61936 25.2084 9.39314C23.7964 9.92405 22.9492 11.0198 22.5256 12.4431C22.3819 12.9624 22.3013 13.4972 22.2855 14.0358C22.102 18.0685 21.9382 22.1012 21.7688 26.1367C21.6803 28.1907 21.5937 30.2447 21.5089 32.2987C21.5046 32.4104 21.4933 32.5217 21.4751 32.6319C21.2943 33.657 20.3906 34.027 19.5745 33.3888C19.1916 33.0654 18.8285 32.7193 18.4873 32.3524C17.2428 31.1136 16.0012 29.871 14.7624 28.6247C14.5197 28.3995 14.343 28.1125 14.2512 27.7944C14.1848 27.5882 14.2 27.3644 14.2934 27.1691C14.3869 26.9737 14.5517 26.8215 14.7539 26.7439C15.2791 26.5451 15.8359 26.4427 16.3975 26.4417L19.1876 26.2384Z" fill="#112D44"/>
</svg>
