<svg width="3027" height="474" viewBox="0 0 3027 474" fill="none" xmlns="http://www.w3.org/2000/svg">
<path d="M619.66 308.233C623.763 363.587 666.738 400.155 729.794 400.155C785.149 400.155 824.595 374.815 824.595 330.042C824.595 278.79 774.208 268.208 711.511 257.627C644.998 246.397 576.615 224.589 576.615 144.472C576.615 74.4325 633.77 27.2817 717.414 27.2817C809.336 27.2817 865.842 78.5348 870.593 152.749H817.541C811.639 105.024 773.344 73.568 717.414 73.568C663.786 73.568 627.867 97.1778 627.867 141.375C627.867 190.827 678.254 200.833 739.799 211.414C806.959 222.644 875.848 245.029 875.848 325.146C875.848 396.409 815.813 446.438 729.218 446.438C628.442 446.438 569.561 389.355 566.61 308.015L619.66 308.233Z" fill="white"/>
<path d="M899.387 292.972C899.387 201.625 956.972 139.217 1041.98 139.217C1127 139.217 1182.13 192.771 1184.51 281.742C1184.51 288.22 1183.93 295.276 1183.36 302.402H950.061V306.504C951.861 363.586 987.782 403.68 1044.94 403.68C1087.33 403.68 1120.3 381.295 1130.31 342.425H1179.47C1167.74 402.53 1118.21 446.656 1048.75 446.656C958.341 446.656 899.387 384.822 899.387 292.972ZM1132.68 262.305C1127.93 210.477 1092.59 181.613 1042.56 181.613C1020.23 181.355 998.613 189.514 982.021 204.466C965.429 219.417 955.074 240.065 953.014 262.305H1132.68Z" fill="white"/>
<path d="M1205.67 292.972C1205.67 201.625 1263.26 139.217 1348.27 139.217C1433.28 139.217 1488.42 192.771 1490.8 281.742C1490.8 288.22 1490.22 295.276 1489.65 302.402H1256.35V306.504C1258.15 363.586 1294.07 403.68 1351.22 403.68C1393.62 403.68 1426.59 381.295 1436.59 342.425H1485.47C1473.74 402.53 1424.21 446.656 1354.75 446.656C1264.63 446.656 1205.67 384.822 1205.67 292.972ZM1438.97 262.305C1434.22 210.477 1398.95 181.613 1348.85 181.613C1326.52 181.371 1304.91 189.535 1288.33 204.483C1271.74 219.432 1261.38 240.072 1259.3 262.305H1438.97Z" fill="white"/>
<path d="M1759.37 30.8105H1807.67V443.127H1765.84L1759.37 394.826C1747.83 411.336 1732.37 424.716 1714.37 433.763C1696.38 442.811 1676.42 447.242 1656.29 446.655C1573.22 446.655 1512.32 390.724 1512.32 292.971C1512.32 201.049 1573.58 139.217 1656.29 139.217C1706.67 139.217 1741.15 159.802 1759.37 188.667V30.8105ZM1760.01 294.124C1760.01 228.116 1719.92 182.189 1661.04 182.189C1602.15 182.189 1561.48 227.539 1561.48 292.971C1561.48 358.404 1601.51 403.68 1661.04 403.68C1720.57 403.68 1760.01 358.331 1760.01 294.339V294.124Z" fill="white"/>
<path d="M1857.12 30.8105H2015.05C2097.47 30.8105 2152.25 80.2616 2152.25 157.427C2153.03 184.015 2144.79 210.085 2128.85 231.382C2112.91 252.678 2090.23 267.944 2064.5 274.688L2157 443.127H2099.41L2012.24 284.764H1908.51V443.127H1857.26L1857.12 30.8105ZM1908.37 77.9579V237.543H2010.87C2065.08 237.543 2099.84 205.8 2099.84 157.427C2099.84 109.055 2065.08 78.2461 2011.45 78.2461L1908.37 77.9579Z" fill="white"/>
<path d="M2396.7 142.742H2445V443.126H2403.18L2396.7 403.104C2378.99 425.49 2350.13 446.655 2300.68 446.655C2234.74 446.655 2182.26 409.584 2182.26 309.888V142.598H2230.42V306.936C2230.42 369.345 2258.71 402.383 2308.81 402.383C2363.59 402.383 2396.56 360.563 2396.56 292.827L2396.7 142.742Z" fill="white"/>
<path d="M2524.47 344.224C2526.27 379.568 2557.51 405.48 2607.54 405.48C2650.01 405.48 2680.03 387.195 2680.03 359.482C2680.03 321.835 2647.06 318.884 2602.28 313.558C2535.12 305.352 2481.5 291.965 2481.5 229.34C2481.5 174.561 2531.88 138.641 2599.33 139.217C2666.78 139.793 2717.1 171.609 2721.7 234.018H2672.18C2668.65 203.425 2640.43 180.463 2599.19 180.463C2557.94 180.463 2529.08 198.098 2529.08 225.811C2529.08 258.779 2560.89 262.883 2604.44 268.21C2672.83 276.416 2727.61 289.372 2727.61 355.957C2727.61 411.959 2673.98 446.656 2607.4 446.656C2529.65 446.656 2476.03 410.16 2474.87 344.224H2524.47Z" fill="white"/>
<path d="M3026.91 275.84V443.127H2978.61V278.789C2978.61 216.38 2948.59 183.412 2896.76 183.412C2840.76 183.412 2806.06 225.164 2806.06 292.971V443.127H2757.76V30.8105H2806.28V192.195C2823.92 163.906 2854.58 139.217 2905.19 139.217C2971.84 139.217 3026.91 176.288 3026.91 275.84Z" fill="white"/>
<g clip-path="url(#clip0_8_107)">
<path d="M419.228 0H54.491C24.3965 0 0 24.3965 0 54.491V419.228C0 449.323 24.3965 473.719 54.491 473.719H419.228C449.323 473.719 473.719 449.323 473.719 419.228V54.491C473.719 24.3965 449.323 0 419.228 0Z" fill="#07E3EA"/>
<path d="M237.831 403.033C146.341 400.154 114.957 336.446 115.965 277.78C115.978 276.897 116.315 276.051 116.912 275.401C117.51 274.75 118.325 274.343 119.204 274.255L128.778 273.176C135.976 272.312 143.606 271.374 151.164 271.158H156.563C194.354 271.158 223.722 282.964 246.397 307.15C263.122 324.543 272.35 347.806 272.095 371.934V373.375C295.49 366.177 309.671 355.379 317.661 338.319C321.92 330.18 323.673 320.962 322.7 311.828C321.726 302.694 318.069 294.054 312.19 286.996C302.75 276.207 290.161 268.653 276.199 265.401C263.818 261.586 251.364 258.203 238.911 254.46C222.714 249.853 206.016 245.102 189.675 240.063C175.712 235.401 162.312 229.198 149.725 221.565C141.331 216.78 134.073 210.237 128.444 202.385C122.816 194.532 118.951 185.555 117.116 176.069C115.254 165.542 115.571 154.745 118.048 144.345C120.524 133.945 125.106 124.163 131.513 115.605C146.629 95.6653 168.512 82.6362 198.241 75.7258C199.175 75.5126 200.09 75.2229 200.977 74.8612C209.062 72.4501 217.446 71.1899 225.883 71.1179H228.69H231.856H236.32C243.988 71.4053 251.631 72.1509 259.21 73.3498C318.956 83.7873 357.54 128.347 357.468 186.797C357.717 188.479 357.598 190.193 357.122 191.826C356.645 193.459 355.823 194.973 354.709 196.258C353.594 197.544 352.216 198.571 350.667 199.274C349.118 199.977 347.435 200.336 345.734 200.329C335.879 201.922 325.916 202.739 315.934 202.775C286.279 203.571 257.387 193.308 234.881 173.982C223.793 164.993 214.91 153.587 208.908 140.637C202.907 127.686 199.947 113.534 200.257 99.2643C183.184 102.731 167.54 111.231 155.339 123.667C149.268 129.735 144.778 137.201 142.268 145.41C139.758 153.619 139.303 162.319 140.943 170.745C141.948 177.698 144.755 184.267 149.087 189.798C153.418 195.33 159.123 199.63 165.633 202.272C187.227 211.702 210.19 219.404 232.289 226.89L234.232 227.536C242.654 230.416 251.437 232.938 259.931 235.385C271.52 238.696 283.396 242.152 294.841 246.471C321.763 256.764 338.031 273.176 343.862 296.859C348.149 312.117 347.445 328.344 341.85 343.173C336.255 358.002 326.063 370.653 312.765 379.277C302.368 385.67 291.317 390.932 279.798 394.97L274.83 396.84C274.375 397.108 273.893 397.328 273.391 397.49C261.836 400.779 249.913 402.593 237.904 402.889H237.543L237.831 403.033ZM140.727 295.632C140.688 296.351 140.688 297.074 140.727 297.794C147.565 357.251 196.153 378.342 235.6 378.342C238.983 378.342 242.367 378.341 245.678 377.91C246.478 376.981 247.09 375.905 247.478 374.743C248.184 365.551 246.946 356.315 243.845 347.633C240.745 338.952 235.851 331.019 229.482 324.355C211.126 304.272 187.227 294.915 154.259 294.915C150.228 295.131 145.766 295.272 140.727 295.632ZM225.018 96.1678C224.078 105.236 225.04 114.401 227.841 123.077C230.642 131.753 235.221 139.749 241.287 146.556C250.526 156.917 261.915 165.139 274.658 170.646C287.401 176.154 301.192 178.815 315.069 178.445C320.995 178.441 326.913 178.007 332.776 177.148C327.09 120.57 281.453 95.2329 238.12 95.2329C234.305 95.8087 229.625 95.8079 225.234 96.1678H225.018Z" fill="#102D44"/>
<path d="M226.242 74.2144H228.906H231.712C240.82 74.5788 249.902 75.4205 258.922 76.7345C312.693 86.1643 354.299 126.187 354.227 186.652C354.227 193.419 351.996 195.648 345.59 196.656C335.898 198.183 326.104 198.977 316.292 199.032C287.522 199.828 259.474 189.96 237.543 171.321C226.267 162.191 217.362 150.47 211.585 137.161C205.808 123.852 203.329 109.347 204.36 94.8743C184.895 97.9849 166.934 107.242 153.108 121.291C146.606 127.786 141.796 135.775 139.098 144.559C136.4 153.344 135.897 162.655 137.632 171.679C138.756 179.237 141.83 186.37 146.551 192.378C151.272 198.386 157.476 203.061 164.554 205.942C186.94 215.659 210.191 223.434 233.37 231.28C253.381 238.046 274.183 242.728 293.906 250.214C316.293 258.78 334.217 273.102 340.623 297.864C344.705 312.398 344.035 327.858 338.713 341.985C333.391 356.112 323.694 368.169 311.038 376.398C299.283 383.465 286.808 389.256 273.823 393.673L272.456 394.25C261.244 397.391 249.687 399.134 238.048 399.434C149.005 396.627 118.773 334.073 119.78 277.854C130.146 276.774 140.799 275.046 151.524 274.758H156.779C190.107 274.758 220.197 284.19 244.023 309.744C260.08 326.412 268.947 348.721 268.712 371.864V378.127C291.819 371.937 310.967 361.499 321.116 339.76C325.692 331.028 327.574 321.132 326.524 311.329C325.473 301.526 321.536 292.258 315.213 284.694C305.431 273.394 292.374 265.416 277.854 261.872C249.061 253.019 220.268 245.604 191.475 236.246C177.733 231.698 164.549 225.616 152.173 218.11C111.718 193.852 113.733 145.335 134.968 117.334C151.236 97.1323 174.233 83.4613 199.752 78.8223C200.879 78.5379 201.985 78.1778 203.063 77.7433C210.688 75.5107 218.585 74.3445 226.53 74.2847M315.645 182.259C322.884 182.262 330.11 181.638 337.24 180.389C333.065 123.307 288.436 91.8516 238.696 91.8516C233.277 91.8411 227.864 92.2237 222.5 93.0009C215.302 137.486 256.044 182.259 316.078 182.259M236.897 381.941C240.352 381.941 244.095 381.941 247.334 381.509C249.205 381.509 252.228 377.333 252.372 374.957C253.084 365.316 251.767 355.633 248.506 346.533C245.245 337.433 240.112 329.118 233.44 322.123C211.845 298.584 185.069 291.53 155.556 291.53C149.941 291.53 144.253 291.531 138.423 292.251C138.307 294.241 138.307 296.236 138.423 298.226C145.117 356.748 191.187 381.941 236.825 381.941M227.178 67.0864C218.576 67.1603 210.026 68.42 201.768 70.8297H200.905L198.745 71.4799C171.597 76.4688 147.16 91.0874 129.929 112.652C123.177 121.61 118.354 131.87 115.765 142.784C113.175 153.699 112.875 165.033 114.884 176.069C116.798 186.05 120.853 195.499 126.768 203.762C132.683 212.026 140.318 218.908 149.148 223.937C161.994 231.704 175.658 238.029 189.892 242.798C206.304 248.124 223.075 252.877 239.343 257.556C251.58 261.011 264.178 264.753 276.487 268.424C289.61 271.528 301.436 278.65 310.319 288.796C315.833 295.307 319.262 303.325 320.16 311.81C321.059 320.296 319.386 328.854 315.357 336.375C311.509 344.106 306.058 350.931 299.368 356.392C292.679 361.853 284.904 365.825 276.559 368.047C275.979 344.26 266.5 321.556 249.996 304.415C226.602 279.365 196.37 267.201 157.499 267.201H152.029C144.254 267.201 136.695 268.351 129.281 269.215L119.78 270.368C117.999 270.547 116.348 271.384 115.15 272.716C113.952 274.047 113.292 275.775 113.301 277.566C112.293 335.152 144.471 403.465 238.552 406.488H238.983C251.459 406.217 263.848 404.328 275.839 400.872L277.638 400.151L282.316 398.281C294.107 394.199 305.408 388.815 316.006 382.229C329.946 373.196 340.625 359.934 346.481 344.389C352.336 328.844 353.059 311.835 348.542 295.85C342.28 271.52 325.075 253.885 297.362 243.304C285.772 238.841 273.752 235.385 262.163 232.074C253.741 229.627 244.958 227.107 236.608 224.299L234.304 223.508C212.71 216.31 189.748 208.389 168.297 199.176C162.352 196.755 157.14 192.826 153.176 187.777C149.213 182.728 146.633 176.732 145.693 170.382C144.184 162.504 144.629 154.378 146.988 146.71C149.348 139.043 153.549 132.069 159.227 126.402C169.854 115.527 183.281 107.804 198.025 104.087C198.388 118.112 201.794 131.89 208.009 144.468C214.223 157.046 223.097 168.125 234.016 176.934C257.213 196.754 286.947 207.246 317.445 206.374C327.618 206.336 337.773 205.519 347.822 203.928C349.916 203.814 351.966 203.272 353.842 202.335C355.719 201.399 357.384 200.086 358.733 198.48C360.083 196.874 361.088 195.01 361.687 193C362.287 190.99 362.467 188.879 362.218 186.797C362.218 126.547 322.555 80.6219 261.01 69.8244C253.334 68.6119 245.596 67.8405 237.832 67.5187H233.153C232.099 67.4527 231.04 67.4527 229.985 67.5187L227.178 67.0864ZM229.482 99.4787C232.721 99.4787 236.032 99.0499 239.271 99.0499C280.085 99.0499 322.916 122.37 329.97 174.27C325.429 174.781 320.862 175.044 316.292 175.061C302.927 175.436 289.641 172.896 277.359 167.613C265.076 162.329 254.093 154.429 245.174 144.468C234.199 132.137 228.557 115.96 229.482 99.4787ZM145.765 299.017C149.148 299.017 152.388 299.017 155.484 299.017C187.804 299.017 210.189 307.728 228.113 327.307C234.037 333.548 238.61 340.941 241.545 349.029C244.48 357.116 245.716 365.723 245.174 374.31V374.743C242.511 374.743 239.774 374.743 237.111 374.743C197.664 374.743 153.252 354.803 146.053 299.017H145.765Z" fill="#0E2D44"/>
</g>
<defs>
<clipPath id="clip0_8_107">
<rect width="473.719" height="473.719" fill="white"/>
</clipPath>
</defs>
</svg>
